<svg width="23" height="18" xmlns="http://www.w3.org/2000/svg">
 <metadata id="metadata222">image/svg+xml</metadata>
 <g>
  <title>Seat Highlighted</title>
  <path fill="#808080" d="m14.71887,12.85275l1.77488,0l0.8776,-0.234l0.89721,0l0.8776,0.234l0.44864,0.42912l0,0.66312l-0.44864,0.66312l-0.42904,0.44857l-0.68264,0.21456l-1.09216,0.234l-1.11168,0l-1.56032,0.21456l-1.75529,0l-2.88649,-0.21456l-2.20392,-0.234l-1.34576,-0.66313l-0.21449,-0.21456l-0.21456,-0.44856l0.21456,-0.66312l0.44857,-0.42912l0.8776,-0.234l1.56032,0.234l1.75529,0l0,-1.34569l-1.75529,0l-0.8972,-0.21456l-0.87761,-0.44856l-0.44856,-0.66312l-0.21456,-0.66313l0,-1.77481l-1.32624,0l0,1.77481l-0.44856,0.66313l-0.44864,0.234l-0.66312,0.21456l-0.44856,-0.21456l-0.42905,-0.234l-0.23407,-0.21456l-0.21449,-0.44857l0,-1.5408l0,-4.87585l0.21449,-0.44856l0.23407,-0.21456l0.42905,-0.44856l0.44856,0l0.66312,0l0.44864,0.44856l0.44856,0.66312l0,1.98937l1.32624,0l0,-0.87768l0.21456,-0.66312l0.21449,-0.89712l1.34576,-1.32624l1.75529,-0.87768l2.67201,-0.44857l2.86697,0.44857l1.98937,0.87768l1.11176,1.32624l0.44856,1.56025l0,0.87768l1.32624,0l0,-1.98937l0.21448,-0.44856l0.23408,-0.21456l0.42904,-0.44857l0.68264,0l0.42912,0l0.44856,0.44857l0.44857,0.21456l0,0.44856l0,4.87585l0,1.5408l0,0.44856l-0.44857,0.21456l-0.44856,0.234l-0.42912,0.21456l-0.68264,-0.21456l-0.42904,-0.234l-0.23408,-0.21456l-0.21448,-0.44856l0,-1.77481l-1.32624,0l0,1.77481l-0.21456,0.66312l-0.44856,0.66312l-0.89721,0.44856l-0.8776,0.21456l-1.77488,0l0,1.34569l-0.00002,0zm-8.40595,-5.10986l0,-2.65249l0,2.65249zm-1.32624,-2.65249l0,2.65249l0,-2.65249zm15.2712,2.65249l0,-2.65249l0,2.65249zm-1.32624,-2.65249l0,2.65249l0,-2.65249zm-8.42554,7.76234l4.21273,0l-4.21273,0zm4.21273,-1.34569l-4.21273,0l4.21273,0z" class="fil0" id="_106046944"/>
  <path fill="#6464ea" stroke="#ffff56" stroke-width="0.65065" stroke-miterlimit="4" d="m12.94407,14.60805l1.77481,0l0.8972,-0.21456l0.87768,0l0.87761,0.21456l0.44864,0.44856l0,0.66312l-0.44864,0.66313l-0.42905,0.44856l-0.66312,0.21456l-1.11168,0.234l-1.11168,0l-1.5408,0.21456l-1.77481,0l-2.88657,-0.21456l-2.20385,-0.234l-1.32624,-0.66312l-0.23408,-0.21456l-0.21448,-0.44857l0.21448,-0.66312l0.44864,-0.44856l0.87761,-0.21456l1.56032,0.21456l1.77481,0l0,-1.32624l-1.77481,0l-0.8972,-0.21456l-0.87761,-0.44856l-0.44864,-0.66312l-0.21448,-0.66313l0,-1.77481l-1.32624,0l0,1.77481l-0.44864,0.66313l-0.44856,0.23407l-0.66312,0.21449l-0.42905,-0.21449l-0.44856,-0.23407l-0.21456,-0.21456l-0.23408,-0.44857l0,-1.5408l0,-4.87585l0.23408,-0.44856l0.21456,-0.21456l0.44856,-0.44856l0.42905,0l0.66312,0l0.44856,0.44856l0.44864,0.66312l0,1.98937l1.32624,0l0,-0.87768l0.21448,-0.66312l0.23408,-0.89712l1.32624,-1.32624l1.77481,-0.87768l2.65249,-0.44857l2.86697,0.44857l2.00888,0.87768l1.09216,1.32624l0.44864,1.56025l0,0.87768l1.32624,0l0,-1.98937l0.234,-0.44856l0.21456,-0.21456l0.44856,-0.44857l0.66313,0l0.42904,0l0.44864,0.44857l0.44856,0.21456l0,0.44856l0,4.87585l0,1.5408l0,0.44856l-0.44856,0.21456l-0.44864,0.23408l-0.42904,0.21448l-0.66313,-0.21448l-0.44856,-0.23408l-0.21456,-0.21456l-0.234,-0.44856l0,-1.77481l-1.32624,0l0,1.77481l-0.21456,0.66312l-0.44856,0.66312l-0.87768,0.44856l-0.8972,0.21456l-1.77481,0l0,1.32624zm-8.40595,-5.09041l0,-2.65249l0,2.65249zm-1.32624,-2.65249l0,2.65249l0,-2.65249zm15.2712,2.65249l0,-2.65249l0,2.65249zm-1.32624,-2.65249l0,2.65249l0,-2.65249zm-8.40602,7.7429l4.19321,0l-4.19321,0zm4.19321,-1.32624l-4.19321,0l4.19321,0z" class="fil1" id="_106047016"/>
 </g>
</svg>